<?xml version="1.0" standalone="no"?>
<!DOCTYPE svg PUBLIC "-//W3C//DTD SVG 20010904//EN"
 "http://www.w3.org/TR/2001/REC-SVG-20010904/DTD/svg10.dtd">
<svg version="1.0" xmlns="http://www.w3.org/2000/svg"
 width="1049.000000pt" height="1100.000000pt" viewBox="0 0 1049.000000 1100.000000"
 preserveAspectRatio="xMidYMid meet">

<g transform="translate(0.000000,1100.000000) scale(0.100000,-0.100000)"
fill="#000000" stroke="none">
<path d="M4900 10849 c-1445 -94 -2800 -798 -3705 -1924 -616 -767 -991 -1651
-1115 -2625 -26 -209 -43 -518 -37 -665 3 -66 6 -124 5 -130 -24 -617 60
-1215 251 -1795 87 -263 270 -700 293 -700 4 0 8 -7 8 -16 0 -21 108 -217 217
-396 277 -454 658 -895 1078 -1249 1103 -929 2554 -1357 3997 -1178 1652 204
3098 1184 3912 2650 356 642 585 1416 632 2131 4 69 10 105 17 101 6 -3 7 -1
3 6 -4 6 -7 174 -6 374 1 641 -38 1013 -157 1492 -461 1852 -1933 3323 -3783
3779 -527 130 -1078 180 -1610 145z m1253 -801 c6 -19 -3 -38 -18 -38 -18 0
-28 17 -21 35 7 18 33 20 39 3z m1877 -423 c0 -8 -7 -15 -15 -15 -8 0 -15 7
-15 15 0 8 7 15 15 15 8 0 15 -7 15 -15z m-6041 -102 c10 -19 -2 -53 -19 -53
-18 0 -32 40 -19 56 15 19 26 18 38 -3z m4991 -43 c0 -5 -4 -10 -10 -10 -5 0
-10 5 -10 10 0 6 5 10 10 10 6 0 10 -4 10 -10z m-1935 -50 c8 -24 -1 -40 -21
-40 -9 0 -14 11 -14 30 0 35 25 42 35 10z m32 -366 c-3 -3 -12 -4 -19 -1 -8 3
-5 6 6 6 11 1 17 -2 13 -5z m506 -1 c-7 -2 -19 -2 -25 0 -7 3 -2 5 12 5 14 0
19 -2 13 -5z m253 -71 c62 -12 129 -25 150 -31 22 -5 71 -18 109 -27 244 -59
438 -124 675 -229 96 -43 186 -81 199 -86 13 -5 71 -37 129 -72 l106 -62 -60
-2 c-252 -10 -601 -48 -815 -88 -211 -40 -702 -166 -869 -223 -672 -230 -1387
-578 -1930 -938 -140 -93 -341 -234 -360 -252 -10 -10 -15 -11 -18 -3 -4 11
-59 -13 -73 -33 -4 -5 -12 -6 -18 -2 -7 5 -9 1 -4 -11 5 -15 3 -16 -8 -5 -19
17 -34 15 -19 -3 8 -9 8 -15 2 -15 -6 0 -12 -6 -15 -12 -2 -7 -3 -5 -1 5 2 18
1 18 -16 2 -12 -11 -26 -14 -44 -9 -16 4 -26 2 -26 -5 0 -6 -7 -11 -15 -11
-17 0 -20 16 -5 25 15 9 13 58 -2 52 -7 -2 -12 -13 -10 -23 2 -18 2 -18 -11
-2 -9 11 -21 15 -35 11 -18 -4 -21 -2 -16 11 4 10 13 15 21 11 10 -3 13 -1 10
9 -4 11 -1 13 10 9 13 -5 12 -1 -3 23 -11 15 -13 25 -6 21 6 -5 17 -5 23 -1 8
4 7 9 -2 15 -10 6 -8 9 9 9 26 0 28 6 7 27 -21 20 -12 28 14 14 18 -10 20 -9
14 6 -5 13 -3 15 11 10 15 -6 17 -3 13 13 -3 11 -1 22 3 25 12 7 8 48 -5 57
-6 5 -3 8 7 8 23 0 34 -20 17 -31 -11 -7 -11 -9 3 -9 21 0 34 19 29 44 -2 13
2 17 12 13 10 -4 17 3 22 20 3 14 4 28 0 31 -3 3 -5 0 -5 -6 0 -7 -7 -12 -15
-12 -17 0 -20 16 -5 25 6 3 10 12 10 18 0 7 -4 6 -10 -3 -6 -10 -10 -11 -10
-2 0 6 -7 12 -15 12 -8 0 -15 -5 -15 -10 0 -6 -11 -20 -25 -32 -17 -15 -23
-28 -19 -41 5 -16 3 -16 -20 4 -31 27 -32 36 -5 60 12 10 18 23 13 30 -4 7 -3
9 3 6 11 -7 36 18 47 47 4 11 12 16 22 12 8 -3 13 -2 9 3 -3 5 7 19 22 30 23
16 24 20 10 21 -10 0 -15 5 -12 11 4 6 14 8 24 4 14 -5 14 -4 -2 12 -15 15
-19 16 -26 4 -7 -11 -10 -9 -16 8 -3 11 -11 21 -17 21 -5 0 -8 -5 -6 -11 4
-11 -52 -79 -65 -79 -17 0 -5 32 13 37 20 5 26 18 13 26 -5 2 -2 2 5 1 7 -2
12 7 12 22 0 26 -8 26 -42 -4 -18 -15 -23 -6 -12 22 3 9 12 16 20 16 7 0 18 9
24 20 12 23 5 60 -12 60 -6 0 -9 2 -6 5 3 3 22 -2 44 -11 36 -15 37 -17 18
-25 -28 -10 -34 -21 -27 -47 5 -20 6 -20 30 -5 17 12 21 18 12 24 -10 6 -10
11 0 23 16 19 6 36 -22 37 -21 0 -21 1 -2 9 14 6 15 9 5 10 -22 1 18 30 42 30
10 0 18 5 18 10 0 6 -7 10 -15 10 -8 0 -15 4 -15 8 0 4 -14 16 -32 26 -28 17
-31 17 -25 3 4 -10 2 -17 -3 -17 -6 0 -10 4 -10 9 0 23 -38 14 -68 -16 -19
-18 -38 -33 -43 -33 -18 0 -9 18 21 41 16 13 30 28 30 33 0 5 -7 3 -15 -4 -9
-7 -36 -14 -62 -15 -46 -2 -46 -2 -24 16 20 16 21 21 9 38 -13 19 -16 19 -43
5 -15 -8 -30 -12 -32 -10 -8 8 8 26 23 26 16 0 18 9 5 29 -7 12 -15 12 -33 4
-13 -5 -34 -8 -47 -6 -17 2 -22 -1 -18 -11 4 -9 1 -13 -6 -11 -7 2 -34 -25
-62 -60 -27 -35 -54 -64 -59 -65 -5 0 1 12 15 27 31 35 37 42 79 94 222 276
606 596 940 784 303 171 703 308 1075 369 50 8 97 17 105 20 8 3 74 13 145 22
72 9 155 20 185 25 30 4 190 6 355 4 246 -3 320 -7 411 -23z m-3259 -378 c6
-16 -15 -37 -29 -28 -4 3 -8 14 -8 25 0 23 28 26 37 3z m-857 -89 c0 -8 -4
-15 -10 -15 -5 0 -10 7 -10 15 0 8 5 15 10 15 6 0 10 -7 10 -15z m-540 -58 c0
-13 -31 -20 -42 -9 -6 6 -8 18 -5 27 6 13 10 13 27 3 11 -7 20 -16 20 -21z
m6325 -34 c204 -18 271 -29 375 -60 97 -29 200 -74 200 -87 0 -2 -58 16 -129
40 -144 49 -270 74 -373 74 l-69 0 16 -22 c8 -13 44 -68 80 -123 35 -55 80
-122 100 -149 40 -55 43 -74 17 -106 l-18 -22 -24 21 c-20 16 -22 20 -8 21 32
0 30 21 -7 73 -20 29 -70 99 -110 157 -89 125 -133 206 -107 194 9 -4 35 -9
57 -11z m-161 -73 c21 -10 50 -33 64 -50 16 -19 28 -26 32 -20 4 6 16 -12 28
-39 15 -37 18 -53 9 -58 -6 -4 -129 -10 -272 -14 -522 -15 -908 -91 -1563
-308 -421 -139 -620 -220 -1077 -436 -60 -28 -193 -99 -295 -157 -102 -58
-221 -125 -265 -148 -113 -60 -133 -76 -137 -108 -2 -22 -7 -27 -29 -24 -14 1
-34 -6 -46 -17 -11 -11 -23 -17 -26 -15 -8 8 -53 -75 -71 -132 -9 -27 -14 -67
-12 -86 7 -52 40 -113 76 -138 16 -12 30 -28 30 -36 0 -8 -4 -13 -10 -9 -5 3
-20 3 -32 0 -18 -5 -26 -17 -34 -51 l-10 -44 29 0 c22 0 28 -4 23 -16 -3 -9
-6 -19 -6 -23 0 -5 -11 -6 -25 -3 l-26 4 41 -80 c22 -45 47 -109 54 -144 18
-75 24 -282 12 -352 l-9 -49 27 7 c27 7 27 6 20 -31 -4 -21 -7 -39 -8 -40 -1
-1 -21 7 -45 18 -24 11 -46 18 -48 15 -6 -5 96 -78 142 -101 l40 -20 5 -120
c8 -153 19 -175 132 -258 33 -25 37 -32 40 -79 l3 -52 55 -12 c30 -7 188 -43
350 -80 162 -36 321 -72 353 -81 32 -8 65 -12 75 -10 13 4 12 5 -5 6 -13 1
-27 12 -37 31 l-14 30 56 0 c56 -1 141 -17 195 -39 16 -6 38 -11 51 -11 20 0
109 -84 99 -94 -7 -6 90 -34 162 -46 39 -7 203 -41 365 -75 162 -35 396 -84
520 -110 124 -26 302 -64 395 -85 94 -21 233 -50 310 -65 199 -37 475 -93 575
-116 72 -16 305 -57 433 -76 38 -6 47 -16 24 -30 -7 -4 -21 -29 -30 -54 -21
-55 -52 -95 -62 -79 -3 5 -22 10 -41 10 -27 0 -34 -4 -34 -20 0 -22 16 -27 23
-7 2 6 8 8 13 4 8 -8 -15 -32 -40 -40 -7 -3 -7 -9 3 -21 15 -18 9 -32 -8 -21
-6 3 -9 11 -6 16 4 5 2 9 -4 9 -5 0 -17 7 -26 16 -12 12 -19 13 -29 5 -9 -7
-15 -8 -18 -2 -1 5 -27 12 -56 15 -36 3 -58 11 -68 23 -12 16 -13 16 -14 1 0
-9 6 -18 13 -21 9 -3 8 -9 -4 -22 -11 -11 -19 -13 -23 -6 -4 6 -3 11 3 11 5 0
9 12 8 27 -2 23 3 28 28 34 17 4 22 7 13 8 -10 0 -18 5 -18 11 0 5 -12 -3 -27
-17 -16 -14 -40 -30 -55 -35 -16 -6 -25 -14 -22 -19 3 -5 -5 -9 -18 -9 -22 1
-22 1 -4 15 11 8 23 15 28 15 17 0 7 18 -12 23 -14 3 -25 -1 -32 -13 -9 -14
-17 -16 -40 -10 -21 7 -30 5 -37 -8 -9 -16 -10 -16 -16 0 -4 10 -11 15 -16 12
-5 -3 -9 0 -9 5 0 6 -10 11 -22 11 -18 0 -20 2 -9 9 10 6 0 8 -27 4 -26 -3
-42 -2 -42 5 0 6 -27 10 -66 10 -36 0 -70 4 -76 10 -8 8 -15 7 -24 -5 -10 -14
-15 -15 -27 -5 -8 7 -46 15 -84 17 -37 2 -76 7 -85 10 -11 4 -18 3 -18 -4 0
-6 -8 -11 -17 -11 -15 0 -16 2 -3 10 21 13 -12 24 -77 25 -29 0 -53 4 -53 8 0
5 -23 6 -51 2 -37 -5 -50 -4 -45 4 5 7 -2 11 -16 12 -13 0 -32 2 -43 4 -11 2
-42 7 -70 10 -57 7 -366 70 -438 89 -26 6 -45 15 -41 19 3 3 -17 9 -45 13 -28
4 -54 11 -57 15 -3 5 -14 9 -24 9 -11 0 -34 6 -52 14 -18 8 -118 35 -223 60
-104 25 -215 53 -245 62 -30 8 -60 16 -67 18 -7 1 -16 5 -19 9 -4 4 -17 7 -29
7 -12 0 -30 7 -41 15 -10 8 -29 15 -41 15 -12 0 -37 9 -55 20 -18 10 -58 24
-88 31 -29 6 -60 18 -68 25 -7 8 -22 14 -32 14 -10 0 -20 6 -23 13 -5 13 -29
19 -177 47 -55 11 -101 28 -80 30 26 3 -63 28 -102 29 -21 1 -38 5 -38 10 0 5
-44 19 -97 31 -54 12 -120 28 -148 35 -52 15 -276 67 -450 105 -260 56 -390
88 -383 95 2 2 21 -1 43 -6 65 -17 222 -48 345 -69 208 -36 343 -61 478 -91
141 -31 184 -36 117 -14 l-40 13 64 -3 c74 -3 106 4 75 17 -13 6 -8 7 16 4 19
-3 53 -1 75 4 37 9 36 9 -13 4 -36 -3 -52 -1 -47 6 3 5 14 10 23 11 19 1 -112
39 -263 76 -55 13 -134 35 -176 49 -42 13 -83 24 -90 24 -8 0 -31 -20 -52 -45
-47 -54 -95 -65 -178 -41 -30 8 -74 20 -99 25 l-45 10 50 -5 c28 -3 74 -9 102
-13 29 -4 66 -6 81 -3 29 4 29 5 35 80 3 43 4 87 3 98 -1 13 -29 44 -64 73
-107 89 -138 159 -121 274 12 85 13 82 -22 114 -17 15 -47 45 -67 66 -19 20
-42 37 -50 37 -10 0 -13 7 -8 28 3 15 9 79 12 142 8 134 0 184 -53 319 l-36
94 53 103 c54 102 54 103 40 146 -7 24 -20 54 -28 67 -8 13 -16 50 -19 81 -5
50 -1 67 24 122 16 35 37 70 45 79 9 8 23 30 33 49 17 33 17 34 -11 94 -16 34
-29 62 -30 64 -1 2 -33 -13 -70 -32 l-69 -36 45 40 c25 23 57 43 72 47 15 3
29 12 32 20 4 9 13 13 22 9 10 -4 33 8 63 32 43 36 77 56 286 174 44 25 233
122 420 216 398 199 592 283 840 362 55 18 114 38 130 45 98 41 684 199 865
234 98 19 528 65 745 81 177 13 208 11 249 -10z m90 -36 c5 -14 4 -15 -9 -4
-17 14 -19 20 -6 20 5 0 12 -7 15 -16z m-5356 -16 c3 -13 -3 -18 -22 -18 -20
0 -26 5 -26 21 0 15 5 20 22 17 13 -2 24 -11 26 -20z m5932 -88 c0 -5 -2 -10
-4 -10 -3 0 -8 5 -11 10 -3 6 -1 10 4 10 6 0 11 -4 11 -10z m-6953 -11 c14
-14 6 -39 -13 -39 -8 0 -14 10 -14 25 0 27 9 32 27 14z m7049 -21 c-10 -6 -22
-6 -26 -2 -5 5 3 10 18 11 22 1 24 0 8 -9z m-36 -28 c0 -5 -4 -10 -10 -10 -5
0 -10 5 -10 10 0 6 5 10 10 10 6 0 10 -4 10 -10z m58 -20 c7 -11 11 -20 9 -20
-2 0 -12 9 -22 20 -10 11 -14 20 -9 20 5 0 15 -9 22 -20z m-696 -20 c23 -7 79
-46 144 -100 58 -50 108 -90 110 -90 56 0 362 -69 419 -95 84 -37 129 -55 141
-55 9 0 14 -11 14 -30 0 -25 4 -30 25 -30 16 0 25 -6 25 -15 0 -8 7 -15 16
-15 8 0 13 -4 9 -9 -3 -5 2 -16 10 -24 20 -21 19 -24 -7 -22 -12 1 -24 7 -26
13 -4 13 -32 17 -32 4 0 -4 6 -16 14 -27 28 -41 47 -147 44 -248 -1 -54 -6
-101 -10 -103 -4 -3 1 -21 11 -40 23 -42 15 -85 -24 -123 l-24 -25 -30 35
c-28 31 -31 32 -31 12 0 -17 -4 -21 -17 -16 -13 5 -15 2 -10 -16 6 -26 -11
-61 -30 -61 -7 0 -13 -5 -13 -11 0 -6 -8 -8 -19 -4 -14 4 -21 0 -26 -15 -9
-27 -23 -25 -53 8 l-25 27 16 -27 c10 -15 17 -35 17 -45 0 -14 -8 -9 -31 17
-30 34 -30 34 -25 8 4 -19 1 -30 -10 -36 -10 -6 -15 -16 -11 -25 10 -27 -9
-28 -21 -2 -7 14 -7 27 -2 30 18 11 6 40 -17 40 -16 0 -21 -5 -18 -15 7 -24
-11 -46 -27 -32 -16 13 -108 22 -108 10 0 -11 -33 -10 -46 0 -5 5 -57 17 -117
27 -100 17 -109 17 -126 1 -17 -16 -19 -15 -34 8 -9 13 -38 35 -64 48 -26 12
-49 26 -51 31 -8 16 -31 6 -35 -15 -4 -20 -4 -20 -6 4 -1 19 -10 31 -32 42
-17 9 -35 13 -40 10 -5 -3 -16 2 -25 10 -9 9 -20 13 -25 10 -6 -3 -19 2 -29
11 -11 10 -26 14 -38 10 -11 -3 -23 -1 -27 5 -3 5 -14 10 -24 10 -10 0 -24 7
-32 16 -7 8 -21 13 -31 11 -10 -3 -18 -1 -18 4 0 5 -12 14 -27 20 -23 8 -30 7
-43 -11 -12 -16 -18 -18 -28 -8 -9 9 -16 8 -30 -5 -10 -9 -24 -17 -30 -17 -18
0 -15 -26 8 -70 31 -61 23 -81 -10 -25 -19 33 -27 58 -23 72 3 14 1 23 -6 23
-6 0 -11 -5 -11 -11 0 -7 -11 -8 -30 -4 -35 8 -64 -13 -49 -36 13 -21 11 -29
-7 -29 -9 0 -18 9 -21 21 -4 12 -11 18 -20 15 -14 -6 -52 9 -63 24 -3 3 -23
15 -45 26 -100 51 -198 105 -222 123 -14 12 -30 21 -35 21 -5 0 -57 28 -116
61 -59 34 -124 71 -144 83 -21 11 -92 53 -159 91 -256 149 -260 150 -320 159
-24 4 -57 10 -73 13 l-29 5 29 13 c83 35 367 129 499 165 83 23 170 48 195 56
69 22 377 82 540 105 230 33 629 49 702 29z m1885 -86 c1 -5 -2 -16 -7 -24
-12 -20 -35 2 -26 25 6 17 27 16 33 -1z m-6607 -284 c0 -5 -4 -10 -10 -10 -5
0 -10 5 -10 10 0 6 5 10 10 10 6 0 10 -4 10 -10z m40 -10 c0 -5 -2 -10 -4 -10
-3 0 -8 5 -11 10 -3 6 -1 10 4 10 6 0 11 -4 11 -10z m5743 -133 c26 -33 47
-64 47 -68 0 -5 36 -62 79 -127 97 -143 189 -325 274 -537 84 -209 108 -286
156 -490 51 -216 68 -322 81 -515 5 -85 12 -166 14 -180 3 -14 1 -41 -4 -60
-8 -37 -14 -19 -10 34 1 23 -2 28 -14 23 -13 -5 -15 -2 -10 18 4 15 2 25 -5
25 -6 0 -11 5 -11 11 0 6 7 9 15 5 9 -3 15 0 15 9 0 8 -6 12 -14 9 -18 -7 -31
13 -18 29 5 7 13 27 17 45 6 28 3 36 -14 48 -17 12 -19 19 -11 34 7 13 7 21 0
25 -5 3 -10 19 -10 35 0 22 -4 28 -15 24 -8 -4 -15 -2 -15 4 0 5 10 13 23 16
l22 7 -22 9 c-13 5 -24 15 -24 22 -2 15 -5 31 -8 38 -2 3 -5 39 -7 80 -4 79
-13 119 -46 210 -11 30 -20 63 -20 73 1 10 -5 20 -13 23 -8 3 -11 12 -8 20 3
8 1 20 -5 27 -5 6 -9 19 -9 27 0 8 -16 58 -36 110 -19 52 -38 106 -42 119 -9
31 -168 354 -199 406 -14 22 -34 56 -45 76 -11 21 -26 43 -33 50 -7 8 -24 34
-37 59 -12 25 -34 65 -47 90 -33 64 -47 100 -51 135 -2 17 -4 37 -6 45 -1 8
-13 31 -26 50 l-24 35 34 -35 c19 -18 55 -61 82 -93z m-5809 98 c-10 -8 -23
-14 -29 -14 -5 0 -1 6 9 14 11 8 24 15 30 15 5 0 1 -7 -10 -15z m146 -4 c0
-13 -52 -23 -63 -12 -7 7 -3 8 12 4 12 -3 21 -1 21 6 0 6 7 11 15 11 8 0 15
-4 15 -9z m-100 -21 c8 -5 11 -12 7 -16 -4 -4 -15 0 -24 9 -18 18 -8 23 17 7z
m280 -5 c0 -8 -9 -15 -20 -15 -20 0 -26 11 -13 23 12 13 33 7 33 -8z m-70 -20
c-7 -9 -15 -13 -17 -11 -6 6 20 36 26 30 2 -2 -2 -10 -9 -19z m-432 -15 c-7
-10 -14 -17 -17 -15 -4 4 18 35 25 35 2 0 -1 -9 -8 -20z m272 6 c0 -3 -4 -8
-10 -11 -5 -3 -10 -1 -10 4 0 6 5 11 10 11 6 0 10 -2 10 -4z m35 -7 c11 -17
-1 -21 -15 -4 -8 9 -8 15 -2 15 6 0 14 -5 17 -11z m155 1 c0 -5 -4 -10 -10
-10 -5 0 -10 5 -10 10 0 6 5 10 10 10 6 0 10 -4 10 -10z m-20 -54 c0 -3 -4 -8
-10 -11 -5 -3 -10 -1 -10 4 0 6 5 11 10 11 6 0 10 -2 10 -4z m-20 -36 c0 -5
-7 -7 -15 -4 -8 4 -12 10 -9 15 6 11 24 2 24 -11z m-240 -64 c0 -3 -4 -8 -10
-11 -5 -3 -10 -1 -10 4 0 6 5 11 10 11 6 0 10 -2 10 -4z m195 -16 c-3 -5 -14
-10 -23 -9 -14 0 -13 2 3 9 27 11 27 11 20 0z m-41 -35 c-4 -8 -10 -12 -15 -9
-11 6 -2 24 11 24 5 0 7 -7 4 -15z m44 -20 c-3 -3 -9 2 -12 12 -6 14 -5 15 5
6 7 -7 10 -15 7 -18z m-18 -25 c8 -5 11 -12 8 -16 -4 -3 -14 1 -23 10 -18 17
-9 21 15 6z m-46 -17 c-4 -10 -7 -28 -7 -40 1 -13 -3 -23 -7 -23 -15 0 -19 29
-7 54 13 29 34 36 21 9z m36 -50 c0 -13 -3 -13 -15 -3 -8 7 -15 19 -15 27 0
13 3 13 15 3 8 -7 15 -19 15 -27z m40 23 c0 -3 -4 -8 -10 -11 -5 -3 -10 -1
-10 4 0 6 5 11 10 11 6 0 10 -2 10 -4z m-150 -10 c0 -3 -4 -8 -10 -11 -5 -3
-10 -1 -10 4 0 6 5 11 10 11 6 0 10 -2 10 -4z m34 -65 c-4 -3 -9 0 -11 7 -3 6
-11 12 -19 12 -9 0 -12 5 -9 11 5 7 14 4 26 -7 11 -9 16 -20 13 -23z m-29 -10
c3 -5 1 -12 -5 -16 -5 -3 -10 1 -10 9 0 18 6 21 15 7z m235 -16 c0 -8 -7 -15
-15 -15 -16 0 -20 12 -8 23 11 12 23 8 23 -8z m-250 -37 c0 -11 -28 -10 -35 1
-3 6 4 9 15 8 11 -1 20 -5 20 -9z m15 -28 c-3 -5 -11 -10 -16 -10 -6 0 -7 5
-4 10 3 6 11 10 16 10 6 0 7 -4 4 -10z m5691 -57 c17 -37 23 -58 15 -61 -6 -2
-11 -12 -11 -23 0 -31 -39 -87 -60 -89 -10 0 -44 63 -45 85 -1 11 -5 33 -10
49 -7 25 -5 28 8 23 9 -3 19 -2 22 3 12 19 57 11 62 -10 3 -11 9 -20 14 -20 5
0 -2 23 -16 50 -14 28 -21 50 -15 50 6 0 22 -26 36 -57z m984 47 c13 -8 13
-11 -2 -27 -21 -20 -45 -5 -35 21 7 18 16 20 37 6z m-6553 -6 c-3 -3 -12 -4
-19 -1 -8 3 -5 6 6 6 11 1 17 -2 13 -5z m8 -24 c3 -5 1 -10 -4 -10 -6 0 -11 5
-11 10 0 6 2 10 4 10 3 0 8 -4 11 -10z m-92 -17 c-7 -2 -19 -2 -25 0 -7 3 -2
5 12 5 14 0 19 -2 13 -5z m-56 -45 c-3 -8 -6 -5 -6 6 -1 11 2 17 5 13 3 -3 4
-12 1 -19z m4028 12 c3 -6 -1 -7 -9 -4 -18 7 -21 14 -7 14 6 0 13 -4 16 -10z
m-3920 -10 c-3 -5 -12 -10 -18 -10 -7 0 -6 4 3 10 19 12 23 12 15 0z m2293
-828 c-41 -33 -148 -140 -168 -167 -13 -17 -11 -17 14 3 37 29 50 28 42 -3 -4
-17 -2 -25 6 -25 9 0 8 -3 -2 -10 -9 -6 -10 -10 -3 -10 7 0 40 23 73 51 34 28
63 49 65 47 5 -5 11 -1098 6 -1098 -17 0 -260 66 -278 75 -21 11 -22 13 -5 17
14 4 19 16 20 49 2 37 -1 46 -20 54 -19 8 -23 17 -21 48 2 24 -9 61 -30 108
l-32 71 -27 -22 -28 -21 0 29 c0 46 -79 280 -104 307 -12 13 -31 51 -42 84
-13 43 -24 61 -36 61 -9 0 -20 -5 -23 -11 -4 -6 -13 -8 -20 -5 -8 3 -25 -13
-40 -36 -25 -37 -26 -45 -16 -78 6 -21 11 -50 11 -65 0 -22 -3 -25 -13 -16
-11 8 -14 5 -14 -19 0 -22 5 -30 18 -30 9 0 20 6 22 13 3 7 6 5 6 -5 1 -10 -4
-18 -11 -18 -6 0 -30 -9 -52 -20 -23 -10 -68 -27 -101 -36 -33 -9 -82 -23
-110 -30 -27 -8 -63 -13 -80 -12 -29 3 -30 4 -31 61 0 34 3 52 8 45 5 -9 8 -4
8 14 0 15 11 39 24 53 22 24 40 91 26 100 -3 2 -19 -2 -35 -9 -62 -26 -101
-39 -137 -43 -21 -3 -38 -10 -38 -15 0 -6 -9 -8 -20 -5 -11 3 -27 -1 -34 -8
-12 -12 -16 -11 -30 3 -13 15 -14 28 -6 78 15 91 12 322 -5 369 -17 48 -18 58
-5 50 6 -3 10 -2 10 4 0 18 31 41 56 41 14 0 27 7 30 15 4 8 14 15 24 15 10 0
22 10 26 22 l7 22 17 -22 c19 -23 30 -20 30 8 0 20 111 79 160 85 20 2 69 29
65 35 -3 5 23 23 57 40 35 18 70 38 79 46 8 8 22 14 31 14 8 0 26 10 40 23 31
29 74 49 156 73 35 10 75 29 88 41 14 13 31 23 37 23 7 0 19 9 27 20 8 11 20
20 26 20 7 0 20 7 28 16 9 8 16 11 16 5 0 -17 27 -13 34 5 5 12 13 14 33 9 16
-4 30 -11 34 -16 8 -14 27 80 25 126 -3 63 33 114 81 115 13 0 28 10 34 23 7
12 19 27 28 34 15 10 16 -25 19 -388 l2 -400 -32 -27z m-2413 758 c3 -5 2 -10
-4 -10 -5 0 -13 5 -16 10 -3 6 -2 10 4 10 5 0 13 -4 16 -10z m-35 -20 c0 -5
-2 -10 -4 -10 -3 0 -8 5 -11 10 -3 6 -1 10 4 10 6 0 11 -4 11 -10z m2177 -1
c15 -15 -3 -66 -27 -79 -10 -5 -69 -24 -131 -41 -63 -17 -143 -40 -179 -50
-232 -64 -443 -119 -461 -119 -17 0 -20 5 -17 37 3 32 7 38 33 44 17 4 93 26
170 49 77 23 185 55 240 71 55 16 152 44 215 63 128 39 141 41 157 25z m2778
-59 c3 -5 1 -10 -4 -10 -6 0 -11 5 -11 10 0 6 2 10 4 10 3 0 8 -4 11 -10z
m-6287 -23 c4 -22 -27 -35 -38 -16 -10 15 7 42 24 36 6 -2 12 -11 14 -20z
m6402 -102 c0 -5 -5 -3 -10 5 -5 8 -10 20 -10 25 0 6 5 3 10 -5 5 -8 10 -19
10 -25z m-4019 -20 c-5 -29 -9 -35 -14 -22 -6 16 9 75 17 66 2 -2 1 -22 -3
-44z m3719 -18 c0 -18 -2 -19 -10 -7 -13 20 -13 43 0 35 6 -3 10 -16 10 -28z
m195 23 c3 -5 1 -10 -4 -10 -6 0 -11 5 -11 10 0 6 2 10 4 10 3 0 8 -4 11 -10z
m-5387 -115 c4 -17 -9 -49 -64 -159 -11 -22 -12 -32 -3 -43 10 -11 9 -13 -2
-11 -8 2 -14 -3 -13 -9 1 -7 2 -20 3 -28 0 -8 8 -15 16 -15 8 0 15 -5 15 -11
0 -6 10 -19 22 -29 l22 -18 -31 -68 c-40 -88 -46 -111 -34 -118 6 -4 9 -12 7
-19 -1 -7 -1 -9 1 -5 2 4 11 4 19 1 7 -3 12 -9 9 -13 -3 -5 -1 -11 5 -15 29
-18 -32 -125 -71 -125 -40 0 -56 -74 -24 -107 15 -15 13 -57 -6 -133 -5 -19
-9 -47 -9 -61 0 -14 -8 -34 -19 -45 -10 -11 -18 -33 -17 -50 0 -16 -3 -46 -7
-66 -7 -31 -5 -38 8 -38 14 0 15 -8 9 -45 -5 -39 -4 -44 10 -39 11 4 16 0 18
-12 2 -30 2 -36 -6 -81 -6 -41 -5 -43 18 -43 28 0 36 -21 36 -93 0 -45 2 -48
31 -54 17 -3 27 -9 22 -12 -5 -3 -20 -32 -32 -63 -14 -34 -31 -60 -42 -63 -11
-4 -28 -24 -39 -44 -10 -21 -27 -41 -36 -45 -18 -7 -44 10 -44 29 0 7 -11 23
-24 36 -25 25 -85 168 -117 277 -10 34 -29 87 -43 118 -14 31 -33 94 -42 141
-14 77 -14 86 0 102 24 26 20 131 -4 131 -5 0 -11 -8 -13 -17 -3 -10 -5 16 -6
57 -1 79 28 281 53 365 8 28 18 73 21 100 13 117 103 458 105 400 l1 -20 15
20 c9 11 22 29 30 39 13 19 14 19 33 2 15 -14 19 -26 14 -49 -5 -25 -3 -29 10
-24 9 3 17 0 19 -8 3 -12 6 -11 22 0 17 13 17 17 5 32 -13 16 -12 17 2 5 22
-17 52 -4 46 19 -3 11 0 22 5 26 7 3 8 1 4 -5 -11 -18 6 -14 34 8 30 24 53 22
58 -5z m-291 -7 c-3 -8 -6 -5 -6 6 -1 11 2 17 5 13 3 -3 4 -12 1 -19z m1770
-10 c-3 -8 -6 -5 -6 6 -1 11 2 17 5 13 3 -3 4 -12 1 -19z m-913 -60 c5 -22 3
-26 -9 -22 -15 6 -20 35 -8 47 8 9 9 8 17 -25z m-947 -30 c-3 -8 -6 -5 -6 6
-1 11 2 17 5 13 3 -3 4 -12 1 -19z m662 -22 c-11 -9 -69 -15 -64 -6 3 6 20 10
37 10 17 0 29 -2 27 -4z m635 -30 c8 -18 19 -37 26 -41 9 -6 9 -9 -1 -16 -8
-5 -20 -2 -31 8 -16 14 -19 14 -33 -1 -9 -9 -25 -16 -36 -16 -25 0 -24 -15 3
-42 17 -17 18 -20 4 -15 -10 4 -22 7 -27 7 -17 0 -41 49 -34 70 6 19 87 80
107 80 4 0 14 -15 22 -34z m5042 19 c-8 -8 -21 -15 -28 -15 -8 1 -6 6 6 15 26
20 42 19 22 0z m54 -37 c0 6 5 12 10 12 25 0 7 -28 -20 -32 -32 -5 -37 1 -18
20 9 9 14 9 20 -1 6 -9 8 -9 8 1z m-319 -85 c26 -57 19 -71 -41 -89 -58 -18
-67 -17 -74 2 -5 14 -4 15 9 4 12 -10 19 -10 27 -2 8 8 5 14 -13 21 -13 5 -27
7 -31 4 -5 -2 -8 3 -8 11 0 9 5 15 11 14 6 -2 14 3 16 11 4 9 0 11 -15 7 -11
-4 -23 -3 -26 3 -6 9 87 61 111 61 7 0 22 -21 34 -47z m349 38 c0 -5 -11 -11
-24 -13 -17 -4 -23 -1 -19 9 6 14 43 18 43 4z m-5790 -31 c0 -5 -10 -10 -22
-9 -22 0 -22 1 -3 9 11 5 21 9 23 9 1 1 2 -3 2 -9z m5707 4 c-3 -3 -12 -4 -19
-1 -8 3 -5 6 6 6 11 1 17 -2 13 -5z m-4792 -24 c3 -5 1 -10 -4 -10 -6 0 -11 5
-11 10 0 6 2 10 4 10 3 0 8 -4 11 -10z m-544 -31 c-9 -22 -10 -22 -10 -3 -1
11 2 24 6 27 12 12 14 0 4 -24z m-184 -26 c-111 -153 -156 -366 -127 -603 14
-114 50 -200 116 -273 38 -42 42 -52 15 -38 -42 23 -110 114 -141 189 -54 127
-64 321 -26 467 27 102 68 208 76 195 5 -8 13 -3 26 16 20 30 82 94 91 94 2 0
-11 -21 -30 -47z m799 36 c3 -6 1 -16 -5 -22 -16 -16 -14 -89 4 -113 17 -25
11 -34 -21 -34 -13 0 -26 -5 -30 -12 -5 -8 5 -9 37 -3 24 5 60 9 79 9 l35 1
17 -69 c12 -48 15 -87 11 -128 -6 -55 -8 -59 -27 -53 -29 9 -156 22 -161 16
-3 -2 -5 -14 -4 -25 0 -12 3 -15 6 -8 9 24 23 12 17 -15 -3 -16 -2 -23 3 -17
17 22 42 24 48 3 4 -10 13 -19 20 -19 8 0 17 -12 20 -27 3 -16 10 -42 15 -59
15 -47 12 -86 -11 -128 -24 -45 -33 -55 -71 -80 -19 -12 -28 -14 -28 -6 0 7
-7 10 -16 6 -13 -5 -51 16 -97 55 -5 4 3 26 18 50 37 58 48 97 29 107 -22 12
-22 113 -1 146 10 14 24 26 31 26 23 0 25 22 10 116 -7 49 -13 90 -14 92 0 1
-13 2 -28 2 -53 0 -67 21 -67 98 0 43 3 68 10 66 5 -2 35 4 65 15 65 22 96 25
106 10z m-703 -60 c4 -15 1 -19 -11 -17 -21 4 -29 38 -9 38 8 0 17 -9 20 -21z
m-231 -17 c-6 -2 -8 -10 -5 -19 3 -8 2 -18 -3 -22 -5 -3 -15 -28 -23 -56 -7
-27 -22 -81 -34 -120 -16 -58 -20 -101 -21 -250 0 -161 2 -187 22 -245 12 -36
22 -74 22 -86 0 -34 56 -135 107 -193 26 -30 84 -81 127 -113 97 -71 76 -77
-27 -8 -73 49 -167 140 -167 164 0 6 -11 -15 -24 -47 -29 -70 -36 -78 -93
-116 -50 -34 -129 -48 -183 -34 -30 8 -26 10 37 10 59 0 79 5 117 27 41 24 96
81 96 100 0 5 7 23 16 42 16 34 16 36 -17 111 -29 67 -38 78 -73 94 -23 10
-66 19 -96 19 -40 1 -50 4 -35 10 33 14 94 11 127 -6 31 -16 31 -16 25 8 -4
12 -12 69 -18 126 -13 111 -3 239 28 372 30 131 91 281 101 251 3 -8 0 -17 -6
-19z m-765 -54 c-3 -8 -6 -5 -6 6 -1 11 2 17 5 13 3 -3 4 -12 1 -19z m2030
-70 c-3 -8 -6 -5 -6 6 -1 11 2 17 5 13 3 -3 4 -12 1 -19z m-1166 -21 c-8 -8
-11 -7 -11 4 0 20 13 34 18 19 3 -7 -1 -17 -7 -23z m7503 -183 c8 -21 -1 -34
-25 -34 -12 0 -19 7 -19 18 0 34 33 45 44 16z m-7541 -106 c3 -40 9 -83 12
-95 9 -27 -9 -31 -20 -5 -12 30 -19 186 -8 179 6 -4 13 -39 16 -79z m-453 32
c0 -5 -4 -10 -10 -10 -5 0 -10 5 -10 10 0 6 5 10 10 10 6 0 10 -4 10 -10z
m-439 -110 c-7 -46 -9 -49 -10 -19 -1 42 12 112 16 89 2 -8 -1 -40 -6 -70z
m7359 70 c0 -5 -4 -10 -10 -10 -5 0 -10 5 -10 10 0 6 5 10 10 10 6 0 10 -4 10
-10z m-7365 -140 c-3 -5 -11 -10 -16 -10 -6 0 -7 5 -4 10 3 6 11 10 16 10 6 0
7 -4 4 -10z m420 0 c3 -5 1 -10 -4 -10 -6 0 -11 5 -11 10 0 6 2 10 4 10 3 0 8
-4 11 -10z m-1755 -14 c16 -20 9 -56 -12 -70 -40 -24 -80 44 -42 71 23 17 39
16 54 -1z m1268 -26 c-7 -10 -14 -17 -17 -15 -4 4 18 35 25 35 2 0 -1 -9 -8
-20z m33 -195 c11 -66 22 -139 24 -161 3 -23 9 -53 15 -68 14 -39 12 -56 -4
-26 -30 56 -85 388 -68 414 4 6 8 1 10 -14 2 -14 12 -79 23 -145z m1543 136
c3 -5 -3 -11 -14 -14 -20 -5 -29 -37 -10 -37 6 0 10 -5 10 -12 0 -7 14 -25 32
-39 l31 -27 29 30 c34 37 46 32 24 -11 -9 -16 -16 -38 -16 -48 0 -10 -4 -24
-9 -32 -13 -20 -60 1 -111 50 -35 34 -39 43 -33 71 5 32 38 78 54 78 4 0 10
-4 13 -9z m-1114 -5 c0 -3 -4 -8 -10 -11 -5 -3 -10 -1 -10 4 0 6 5 11 10 11 6
0 10 -2 10 -4z m650 -109 c0 -7 -12 1 -25 16 -14 15 -25 33 -25 40 0 7 12 -1
25 -16 14 -15 25 -33 25 -40z m152 38 c-43 -19 -47 -33 -23 -88 28 -64 10 -68
-22 -5 -26 49 -26 53 -9 71 18 21 48 36 72 36 8 0 0 -6 -18 -14z m1015 -47
c-3 -8 -6 -5 -6 6 -1 11 2 17 5 13 3 -3 4 -12 1 -19z m-2463 -17 c-14 -24 -15
-35 -5 -74 14 -56 14 -100 1 -113 -13 -13 7 -134 26 -155 20 -22 3 -32 -23
-14 -34 24 -45 84 -37 213 5 92 11 123 26 145 26 36 34 35 12 -2z m7176 -31
c0 -5 -5 -10 -11 -10 -5 0 -7 5 -4 10 3 6 8 10 11 10 2 0 4 -4 4 -10z m-6387
-63 c-8 -29 -23 -48 -35 -41 -10 6 -2 41 14 61 15 18 27 7 21 -20z m218 2 c16
-8 18 -13 8 -25 -6 -8 -17 -14 -23 -14 -6 0 -5 4 3 9 10 7 10 10 1 16 -15 10
-30 -12 -30 -45 0 -32 15 -57 24 -41 4 6 4 16 0 23 -4 7 -3 8 4 4 8 -4 12 0
12 10 0 13 3 15 11 7 8 -8 6 -19 -7 -42 -21 -36 -29 -38 -44 -12 -18 35 -7
121 16 121 3 0 14 -5 25 -11z m764 -9 c-27 -12 -43 -12 -25 0 8 5 22 9 30 9
10 0 8 -3 -5 -9z m5772 -12 c-3 -8 -6 -5 -6 6 -1 11 2 17 5 13 3 -3 4 -12 1
-19z m-5928 -30 c-27 -10 -96 -1 -105 14 -4 7 11 8 45 3 37 -5 51 -4 51 5 0 9
4 9 16 -1 14 -12 13 -14 -7 -21z m5547 -15 c-10 -10 -19 5 -10 18 6 11 8 11
12 0 2 -7 1 -15 -2 -18z m-6378 -27 c3 -12 -1 -17 -10 -14 -7 3 -15 13 -16 22
-3 12 1 17 10 14 7 -3 15 -13 16 -22z m795 13 c-12 -4 -34 -4 -50 1 -24 7 -20
8 22 8 37 -1 44 -3 28 -9z m387 -90 c0 -14 -44 -17 -62 -5 -18 13 -15 14 21
13 23 -1 41 -4 41 -8z m60 -15 c0 -11 -31 -36 -37 -30 -17 17 -10 36 13 36 13
0 24 -3 24 -6z m75 -23 c26 -13 27 -15 10 -19 -11 -2 -23 -9 -27 -16 -6 -8
-10 -7 -17 2 -4 8 -11 13 -15 13 -7 -1 -7 -2 1 27 3 13 9 20 12 15 3 -5 20
-15 36 -22z m-150 9 c3 -5 1 -10 -4 -10 -6 0 -11 5 -11 10 0 6 2 10 4 10 3 0
8 -4 11 -10z m-2049 -43 c7 -20 -31 -150 -46 -155 -10 -4 -12 9 -7 62 6 67 20
106 38 106 5 0 12 -6 15 -13z m-746 -23 c0 -8 -4 -12 -10 -9 -5 3 -10 10 -10
16 0 5 5 9 10 9 6 0 10 -7 10 -16z m2359 9 c0 -5 -4 -17 -9 -28 -8 -18 -9 -17
-9 8 -1 15 4 27 9 27 6 0 10 -3 9 -7z m478 -29 c-3 -3 -12 -4 -19 -1 -8 3 -5
6 6 6 11 1 17 -2 13 -5z m-337 -34 c36 -10 57 -19 48 -19 -19 -1 -151 28 -157
35 -10 10 50 2 109 -16z m6372 5 c0 -5 -5 -11 -11 -13 -6 -2 -11 4 -11 13 0 9
5 15 11 13 6 -2 11 -8 11 -13z m488 -31 c0 -8 -10 -14 -25 -14 -26 0 -35 25
-12 33 18 6 37 -3 37 -19z m-8484 5 c3 -6 1 -15 -7 -19 -10 -7 -10 -16 1 -49
7 -23 18 -41 23 -41 5 0 7 -9 4 -20 -3 -12 2 -25 12 -33 9 -6 24 -23 33 -35
15 -22 15 -26 -4 -58 -11 -18 -17 -38 -13 -43 3 -6 1 -20 -5 -32 -8 -15 -9
-24 -1 -32 7 -7 35 13 93 69 84 80 172 132 202 121 23 -9 20 -35 -5 -42 -34
-11 -131 -70 -166 -102 -17 -15 -46 -39 -63 -52 -51 -39 -73 -94 -67 -168 2
-35 3 -63 1 -63 -2 0 -10 13 -19 29 -15 29 -15 142 0 233 5 29 1 46 -20 82
-15 25 -28 46 -30 46 -1 0 0 -12 3 -26 3 -15 1 -24 -4 -21 -5 3 -11 49 -12
103 -3 118 19 193 44 153z m1749 -9 c4 -7 -3 -8 -22 -4 -38 9 -42 14 -10 14
14 0 29 -5 32 -10z m1282 -56 c-3 -3 -12 -4 -19 -1 -8 3 -5 6 6 6 11 1 17 -2
13 -5z m-3186 -46 c23 -83 27 -108 18 -108 -5 0 -18 15 -29 33 -21 33 -28 117
-10 117 5 0 15 -19 21 -42z m3242 35 c-7 -2 -21 -2 -30 0 -10 3 -4 5 12 5 17
0 24 -2 18 -5z m-4193 -57 c20 -25 8 -61 -21 -64 -36 -4 -55 21 -41 53 13 28
43 33 62 11z m1508 -174 c-2 -18 -9 -26 -26 -27 -13 -1 -46 -25 -75 -53 -53
-51 -132 -100 -144 -88 -4 4 11 25 33 49 22 23 46 55 54 70 9 18 25 30 42 34
16 3 25 10 21 16 -4 6 0 8 10 4 10 -3 17 -3 17 1 0 11 43 29 58 24 7 -3 12
-16 10 -30z m1310 6 c-2 -8 7 -13 20 -12 22 1 23 -5 5 -53 -7 -19 4 -16 40 9
18 13 34 24 37 26 2 2 -2 7 -10 12 -21 13 -6 22 25 14 21 -5 26 -11 21 -28 -5
-20 -4 -20 9 -3 8 12 15 14 20 8 9 -15 -4 -51 -18 -51 -7 0 -7 -4 2 -9 12 -8
13 -12 1 -25 -20 -26 -6 -28 24 -5 22 17 29 19 41 9 13 -10 19 -9 37 6 21 19
21 19 10 -2 -6 -12 -8 -24 -5 -28 3 -3 -4 -6 -16 -6 -28 0 -37 -25 -16 -46 15
-15 15 -18 -1 -35 -9 -10 -13 -22 -10 -27 13 -21 -29 -22 -56 -2 -15 11 -28
16 -28 10 0 -5 5 -10 10 -10 6 0 10 -6 10 -12 0 -7 -13 -13 -30 -14 -17 -1
-39 -9 -50 -19 -17 -16 -20 -16 -26 -2 -3 9 -12 13 -20 10 -8 -3 -14 0 -14 5
0 7 -14 8 -37 5 -30 -5 -35 -3 -30 9 6 16 -10 38 -27 38 -5 0 -1 -7 10 -15 19
-14 19 -14 -3 -15 -13 0 -24 8 -28 20 -7 21 -20 26 -29 11 -4 -5 -1 -11 5 -13
14 -5 0 -38 -16 -38 -8 0 -17 5 -20 10 -3 6 -1 10 5 10 7 0 6 5 -2 13 -10 12
-15 12 -26 0 -18 -17 -32 -17 -32 2 0 8 7 15 17 15 21 0 8 13 -17 17 -19 3
-24 -6 -21 -34 1 -7 -3 -13 -9 -13 -5 0 -10 6 -10 13 0 9 -2 9 -9 -1 -5 -8
-21 -12 -37 -11 -16 2 -35 0 -42 -5 -10 -6 -13 -3 -10 10 2 11 -6 27 -17 36
-17 15 -18 19 -5 28 12 9 11 10 -7 5 -18 -5 -24 -1 -29 19 -4 16 -13 26 -24
26 -10 0 -27 3 -37 6 -14 4 -15 4 -4 -4 7 -5 10 -15 6 -22 -5 -8 -12 -6 -24 7
-15 16 -15 19 -2 35 18 21 37 23 44 6 2 -7 7 1 11 19 7 32 36 67 36 44 0 -6
-5 -11 -11 -11 -5 0 -7 -5 -4 -10 5 -8 11 -7 21 1 11 9 19 8 39 -5 23 -15 24
-15 18 0 -4 12 -2 15 8 12 8 -3 22 1 32 10 22 19 35 8 16 -14 -13 -16 -12 -16
8 -4 17 11 20 18 11 33 -5 10 -7 21 -4 25 3 3 6 0 6 -6 0 -6 6 -9 14 -6 11 4
13 0 9 -15 -4 -16 -1 -21 16 -21 11 0 21 -5 21 -11 0 -5 5 -7 11 -3 8 5 6 10
-5 16 -29 16 -18 31 19 25 19 -3 35 -2 35 4 0 5 5 9 10 9 6 0 10 -7 10 -15 0
-10 10 -15 33 -14 17 0 26 3 20 6 -20 8 -15 23 8 23 13 0 18 4 13 12 -4 6 -3
8 2 5 6 -3 16 -2 24 4 21 12 30 11 28 -3z m72 -18 c0 -5 -2 -10 -4 -10 -3 0
-8 5 -11 10 -3 6 -1 10 4 10 6 0 11 -4 11 -10z m-530 -4 c0 -2 -7 -9 -15 -16
-13 -11 -14 -10 -9 4 5 14 24 23 24 12z m670 -16 c-19 -13 -30 -13 -30 0 0 6
10 10 23 10 18 0 19 -2 7 -10z m41 -33 c-4 -11 -14 -23 -22 -25 -11 -3 -11 -1
1 7 12 8 12 11 1 11 -10 0 -11 3 -2 13 6 8 8 17 4 21 -4 4 0 4 9 1 12 -5 15
-12 9 -28z m-761 19 c0 -3 -4 -8 -10 -11 -5 -3 -10 -1 -10 4 0 6 5 11 10 11 6
0 10 -2 10 -4z m696 -44 c-11 -9 -16 -11 -12 -4 4 6 2 12 -4 12 -7 0 -6 5 2
14 8 9 17 11 23 5 6 -6 2 -16 -9 -27z m-666 18 c0 -5 -7 -10 -16 -10 -8 0 -12
5 -9 10 3 6 10 10 16 10 5 0 9 -4 9 -10z m-716 -19 c8 -12 -76 -61 -104 -61
-11 0 -43 -21 -70 -46 -28 -26 -50 -42 -50 -37 0 19 130 132 163 142 43 12 55
13 61 2z m-395 -77 c-18 -29 -24 -55 -25 -111 -2 -40 1 -86 6 -102 13 -47 -2
-45 -25 4 -12 24 -25 42 -29 38 -3 -3 -6 5 -6 18 0 19 2 21 10 9 7 -11 10 -3
10 30 0 67 55 174 79 154 2 -2 -7 -20 -20 -40z m2322 -19 c-8 -46 -9 -47 -10
-13 -1 34 8 73 15 66 2 -2 -1 -26 -5 -53z m-451 35 c0 -5 -4 -10 -10 -10 -5 0
-10 5 -10 10 0 6 5 10 10 10 6 0 10 -4 10 -10z m520 0 c0 -5 -2 -10 -4 -10 -3
0 -8 5 -11 10 -3 6 -1 10 4 10 6 0 11 -4 11 -10z m-550 -10 c0 -5 -4 -10 -9
-10 -6 0 -13 5 -16 10 -3 6 1 10 9 10 9 0 16 -4 16 -10z m-1356 -19 c3 -5 -12
-21 -35 -36 -22 -16 -66 -56 -98 -91 -67 -71 -101 -147 -101 -224 0 -54 -10
-63 -28 -27 -10 18 -11 13 -6 -32 5 -41 3 -52 -6 -46 -9 5 -11 31 -8 89 6 103
52 207 126 283 73 76 139 112 156 84z m1892 -77 c-8 -27 -15 -40 -15 -28 -1
24 19 87 26 81 2 -3 -2 -27 -11 -53z m-2275 -3 c-12 -16 -24 -44 -27 -63 l-6
-33 21 25 c27 33 27 11 0 -34 -17 -29 -20 -49 -17 -106 3 -72 -5 -93 -17 -40
-4 16 -11 32 -16 35 -27 17 3 162 45 218 34 44 48 42 17 -2z m3032 -154 c43
-79 78 -194 76 -252 -1 -27 -3 -32 -6 -15 -18 106 -128 330 -205 418 -52 60
-28 48 35 -18 35 -36 80 -96 100 -133z m-2538 162 c4 -5 -31 -46 -78 -89 -70
-66 -92 -94 -126 -162 -26 -55 -43 -104 -47 -143 -7 -55 -8 -58 -17 -31 -9 26
-1 95 18 151 6 16 5 17 -4 5 -8 -11 -11 -12 -11 -2 0 38 84 147 170 221 72 63
84 69 95 50z m1741 -76 c-9 -9 -37 51 -31 65 5 13 10 7 20 -23 8 -21 13 -41
11 -42z m880 42 c-6 -16 9 -21 19 -5 3 5 15 6 28 1 12 -5 33 -8 47 -7 14 1 30
-2 36 -6 7 -5 16 -8 20 -7 5 1 21 -3 36 -9 32 -13 160 -40 219 -46 220 -21
419 -55 650 -111 58 -14 138 -27 176 -30 39 -2 90 -8 114 -14 24 -5 51 -9 59
-9 46 -2 265 -42 325 -60 39 -12 106 -28 150 -37 82 -17 189 -43 285 -71 30
-8 134 -30 231 -48 98 -19 182 -37 188 -40 6 -4 37 -14 68 -22 32 -8 68 -22
80 -29 12 -8 55 -20 95 -25 40 -6 87 -15 103 -21 36 -12 175 -28 191 -22 22 8
87 168 115 283 22 91 34 120 54 138 14 12 31 22 38 22 34 0 327 -59 359 -73
20 -8 41 -24 46 -34 13 -23 44 -301 36 -315 -3 -5 -3 -36 1 -69 5 -46 13 -66
35 -87 19 -20 25 -33 20 -47 -4 -11 -10 -35 -13 -52 -6 -29 -4 -33 19 -39 13
-3 29 -15 35 -27 10 -18 9 -19 -15 -15 -14 3 -30 0 -34 -6 -8 -11 -53 -114
-66 -150 -4 -13 -10 -16 -17 -9 -13 13 23 128 50 157 15 16 17 25 10 36 -7 11
-12 12 -15 3 -3 -6 -32 -50 -65 -97 -32 -47 -59 -88 -59 -91 0 -2 12 0 26 5
34 13 34 14 34 -18 0 -15 5 -33 10 -38 7 -7 2 -27 -15 -62 -14 -29 -25 -56
-25 -61 0 -21 -19 -19 -75 10 -32 16 -64 29 -71 29 -8 0 -14 4 -14 9 0 5 -15
11 -32 14 -18 3 -91 14 -162 26 -71 12 -145 21 -166 21 -50 0 -101 18 -122 42
-18 20 -18 19 -18 -20 0 -30 4 -42 18 -45 9 -2 -4 -2 -30 1 -61 6 -64 -13 -5
-30 l42 -12 -35 -4 c-49 -5 -63 -22 -19 -23 18 0 52 -6 74 -13 l40 -12 -33 -7
c-43 -9 -34 -21 28 -42 46 -15 67 -35 38 -35 -7 0 2 -14 20 -31 17 -16 32 -37
32 -46 0 -9 8 -25 17 -35 24 -26 5 -37 -67 -39 -49 -1 -44 -3 44 -15 132 -18
147 -34 25 -27 -52 3 -110 1 -129 -4 -31 -8 -24 -10 60 -16 78 -6 98 -11 115
-28 l20 -22 -22 6 c-14 3 -28 -3 -42 -19 -17 -19 -25 -22 -43 -15 -13 6 -40
12 -60 16 -35 5 -54 25 -25 25 8 0 7 4 -3 10 -8 5 -28 9 -45 9 -29 0 -29 -1
-6 -10 17 -7 22 -15 18 -30 -4 -13 0 -22 11 -26 34 -14 -34 -19 -133 -12 -55
5 -352 9 -660 10 -574 2 -916 -11 -1415 -56 -91 -8 -248 -19 -350 -25 -102 -6
-203 -12 -225 -14 -22 -2 -32 -1 -22 1 9 2 17 10 17 18 0 7 16 16 35 19 45 9
66 43 39 63 -10 7 -24 13 -31 13 -7 0 -13 4 -13 8 0 5 33 15 73 22 67 12 127
36 127 51 0 9 -60 30 -70 24 -4 -3 -30 2 -56 10 -27 8 -76 15 -109 16 l-60 1
59 9 c32 5 65 14 73 21 9 7 27 11 42 10 28 -3 71 21 59 33 -4 4 -49 10 -100
12 -51 3 -95 6 -97 8 -2 2 13 12 33 21 39 19 46 37 19 50 -10 4 -67 12 -128
18 l-110 11 250 33 c230 29 408 47 889 86 98 9 181 18 185 22 3 4 -34 4 -84 0
-49 -3 -216 -10 -370 -16 -298 -11 -590 -40 -909 -90 -104 -17 -212 -30 -240
-30 -28 0 -114 -12 -191 -26 -77 -14 -171 -29 -210 -34 -38 -5 -130 -21 -204
-35 -74 -15 -144 -24 -156 -21 -20 5 -146 -14 -204 -30 -16 -5 -22 -4 -18 3 4
6 27 14 51 17 39 6 161 61 191 86 7 6 48 28 91 49 88 44 164 96 164 112 0 5
-4 7 -10 4 -14 -9 -12 19 2 33 8 8 9 12 1 12 -6 0 -9 9 -6 20 5 20 23 28 23
10 0 -5 5 -10 11 -10 6 0 8 7 5 16 -5 13 -1 15 19 10 17 -4 24 -3 23 6 -2 8
10 11 39 9 23 -1 54 4 70 13 16 8 71 26 121 41 51 14 100 32 110 40 62 55 80
68 103 81 24 12 39 33 38 50 0 4 3 10 8 13 40 27 118 174 145 269 17 65 19 93
14 192 -7 134 -8 141 -24 196 -7 23 -9 49 -6 59 4 9 1 34 -6 56 -12 35 -11 41
6 59 23 23 28 24 20 5z m-2996 -33 c-43 -58 -60 -206 -36 -302 9 -34 15 -65
12 -67 -2 -2 -13 8 -23 24 -66 94 -56 244 22 339 41 49 60 54 25 6z m2483 -2
c-6 -22 -21 -35 -30 -26 -5 5 24 46 33 46 1 0 0 -9 -3 -20z m-1991 -7 c3 -12
-16 -36 -51 -69 -31 -29 -66 -71 -78 -95 -80 -163 -92 -195 -94 -256 -1 -34
-6 -60 -11 -57 -4 3 -8 14 -8 25 0 10 -7 19 -15 19 -20 0 -19 -6 15 -73 l29
-58 -26 3 c-42 5 -64 54 -70 151 -4 62 -1 91 11 120 9 20 18 37 21 37 2 0 1
-39 -2 -87 -4 -57 -3 -84 4 -80 5 4 13 41 17 84 9 114 78 235 179 314 54 43
74 48 79 22z m2173 -20 c37 -38 88 -113 76 -113 -5 0 -24 19 -42 43 -18 23
-44 52 -56 64 -13 12 -23 25 -23 28 0 12 19 3 45 -22z m-2025 -35 c0 -6 -23
-35 -50 -64 -28 -29 -65 -84 -83 -122 -18 -38 -43 -82 -55 -99 -14 -19 -26
-58 -32 -104 -12 -81 -15 -90 -25 -60 -12 38 23 202 60 276 50 104 185 229
185 173z m1728 -3 c73 -23 83 -30 145 -97 100 -108 104 -114 117 -152 16 -50
8 -81 -11 -41 -64 139 -184 254 -298 285 -20 5 -43 14 -51 20 -27 18 14 12 98
-15z m1820 18 c-10 -2 -26 -2 -35 0 -10 3 -2 5 17 5 19 0 27 -2 18 -5z m-2140
-23 c-71 -29 -126 -66 -181 -124 -40 -41 -47 -45 -34 -21 14 27 56 71 99 104
23 18 129 61 148 60 8 0 -6 -9 -32 -19z m-1315 -84 c-81 -92 -146 -254 -144
-358 1 -51 -14 -65 -25 -23 -3 13 -4 62 -2 107 5 113 47 205 130 284 42 40 62
54 70 46 8 -8 -1 -24 -29 -56z m182 3 c4 -5 -13 -32 -38 -58 -55 -59 -66 -79
-107 -206 -18 -55 -35 -107 -38 -115 -8 -24 -23 71 -19 118 6 61 58 160 115
220 48 51 74 63 87 41z m930 2 c10 -18 -17 -23 -33 -7 -15 15 -15 16 5 16 12
0 24 -4 28 -9z m1055 4 c0 -2 -21 -16 -47 -31 -27 -15 -74 -45 -105 -66 -55
-37 -86 -49 -73 -28 7 11 96 70 160 106 38 21 65 29 65 19z m-1368 -47 c-11
-18 -30 -66 -42 -105 -18 -61 -21 -88 -16 -165 8 -149 20 -210 45 -252 30 -48
7 -45 -26 3 -57 84 -84 227 -64 336 13 71 59 173 92 203 31 29 36 20 11 -20z
m248 21 c-7 -11 -14 -18 -17 -15 -3 3 0 12 7 21 18 21 23 19 10 -6z m590 -4
c78 -41 191 -208 189 -284 l0 -36 -14 35 c-8 19 -17 43 -21 53 -6 17 -24 24
-24 9 0 -4 -17 -12 -37 -19 -33 -10 -42 -9 -70 8 -18 11 -46 37 -63 59 -25 31
-29 43 -21 62 6 15 5 31 -1 42 -7 13 -5 22 6 35 23 25 20 38 -11 50 -26 10
-26 10 7 5 19 -4 46 -12 60 -19z m-1316 -33 c-40 -39 -106 -184 -112 -243 -3
-28 -10 -53 -16 -55 -7 -3 -10 -22 -8 -49 3 -28 0 -45 -7 -45 -17 0 -24 45
-19 138 6 110 34 179 101 249 42 44 53 50 69 42 18 -10 18 -12 -8 -37z m179
42 c3 -3 -14 -33 -38 -65 -24 -33 -48 -74 -54 -92 -9 -27 -40 -256 -41 -307
-1 -28 -30 39 -36 84 -8 57 12 199 36 253 10 23 37 62 60 87 40 43 59 54 73
40z m167 2 c0 -3 -15 -31 -34 -63 -54 -91 -70 -159 -70 -305 -1 -141 -11 -157
-38 -62 -38 137 -7 303 77 403 15 17 35 31 46 31 10 0 19 -2 19 -4z m201 -18
c-4 -13 -14 -63 -21 -111 -11 -70 -11 -106 -2 -175 7 -48 16 -88 22 -90 5 -2
10 -12 10 -22 0 -10 16 -48 35 -85 42 -78 26 -82 -26 -7 -46 65 -77 159 -85
260 -6 67 -3 90 16 148 12 38 27 77 32 87 13 25 29 21 19 -5z m1119 7 c-14
-16 -97 -75 -107 -75 -11 0 22 34 61 62 42 30 66 37 46 13z m-2656 -57 c-7
-59 13 -142 52 -220 18 -36 20 -46 9 -42 -8 4 -15 10 -15 14 0 5 -9 12 -21 15
-35 12 -62 87 -54 154 6 55 25 131 32 131 2 0 0 -24 -3 -52z m4978 13 c5 -4
-8 -5 -27 -3 -19 2 -35 8 -35 13 0 10 49 1 62 -10z m1067 -88 c-1 -38 -13 -51
-36 -42 -28 10 -30 23 -3 16 11 -3 18 -1 15 3 -7 11 5 40 16 40 5 0 9 -8 8
-17z m-325 -5 c-3 -4 -9 -8 -15 -8 -5 0 -9 4 -9 8 0 5 7 9 15 9 8 0 12 -4 9
-9z m206 -49 c0 -4 -7 -6 -15 -3 -8 4 -15 10 -15 15 0 4 7 6 15 3 8 -4 15 -10
15 -15z m-5633 -15 c-2 -15 -1 -58 4 -95 7 -54 17 -82 50 -134 22 -36 55 -76
72 -91 l32 -25 -45 21 c-83 41 -108 66 -126 127 -16 56 -15 162 1 206 11 26
18 20 12 -9z m1562 -81 c2 -73 64 -178 125 -211 61 -33 140 -62 168 -62 15 0
28 -4 28 -9 0 -13 -87 6 -145 33 -61 28 -119 76 -151 128 -28 45 -55 148 -46
180 l6 23 7 -25 c4 -14 7 -40 8 -57z m5108 5 c-3 -8 -6 -5 -6 6 -1 11 2 17 5
13 3 -3 4 -12 1 -19z m-4157 -88 c22 -11 40 -23 40 -25 0 -12 -28 -3 -65 20
-48 29 -30 33 25 5z m5 -59 c-2 -5 -33 -12 -67 -15 -34 -4 -70 -12 -80 -17
-12 -7 -27 -5 -49 7 -39 20 -26 40 16 24 20 -7 44 -8 79 0 96 19 113 19 101 1z
m33 -52 c-2 -15 -11 -23 -28 -25 -14 -2 -60 -9 -103 -17 -55 -10 -77 -11 -74
-3 2 6 13 12 25 14 12 2 22 7 22 12 0 5 15 8 33 8 55 0 111 10 115 21 6 19 13
12 10 -10z m-303 -57 c-63 -52 -107 -83 -113 -77 -4 4 -1 10 6 12 7 3 32 20
55 38 23 19 46 34 52 34 6 1 6 -2 0 -7z m-2690 -31 c3 -5 1 -13 -5 -16 -15 -9
-43 3 -35 15 8 13 32 13 40 1z m2628 -142 c26 -13 47 -26 47 -29 0 -3 -13 -11
-28 -18 -24 -10 -38 -9 -83 5 -61 19 -84 33 -52 33 26 0 35 11 24 29 -5 7 -6
22 -3 33 5 19 6 19 26 -4 12 -14 42 -36 69 -49z m4310 -55 c3 -3 2 -14 -2 -23
-5 -9 -19 -40 -32 -68 -12 -29 -27 -53 -32 -53 -11 0 0 54 23 108 18 40 29 50
43 36z m-6180 -109 c20 -8 53 -15 74 -15 83 0 194 -45 177 -72 -3 -5 -1 -14 4
-21 10 -13 8 -109 -4 -194 -4 -29 -3 -58 2 -65 5 -7 9 -56 9 -108 0 -88 -2
-95 -20 -98 -12 -2 -25 -13 -30 -25 -7 -15 -46 -35 -143 -73 -79 -31 -135 -48
-138 -42 -7 12 4 634 12 691 6 42 8 43 57 22z m-403 -250 c0 -8 -4 -15 -10
-15 -5 0 -10 7 -10 15 0 8 5 15 10 15 6 0 10 -7 10 -15z m1503 -132 c-7 -2
-19 -2 -25 0 -7 3 -2 5 12 5 14 0 19 -2 13 -5z m-56 -9 c-3 -3 -12 -4 -19 -1
-8 3 -5 6 6 6 11 1 17 -2 13 -5z m-867 -278 c0 -3 -20 -14 -44 -27 -81 -40
-141 -92 -144 -124 -2 -17 -11 -36 -20 -43 -16 -12 -16 -14 -1 -25 19 -14 20
-56 1 -76 -18 -18 -11 -31 25 -51 l32 -17 -25 -19 c-22 -16 -26 -27 -27 -79
-2 -50 -6 -64 -27 -84 l-25 -23 30 6 c21 5 8 -7 -45 -40 -41 -25 -84 -55 -96
-65 l-20 -19 -18 118 c-10 64 -19 155 -19 202 -2 73 1 91 21 125 l24 40 -30
-28 -29 -28 5 27 c6 31 86 114 110 114 8 0 23 7 32 15 9 8 76 35 150 60 148
49 140 47 140 41z m-1380 -26 c0 -5 -4 -10 -10 -10 -5 0 -10 5 -10 10 0 6 5
10 10 10 6 0 10 -4 10 -10z m5141 -54 c-16 -19 -41 -10 -41 14 0 24 21 31 39
14 11 -10 12 -16 2 -28z m-4401 -1 c0 -8 -4 -15 -10 -15 -5 0 -10 7 -10 15 0
8 5 15 10 15 6 0 10 -7 10 -15z m-400 -25 c0 -5 -2 -10 -4 -10 -3 0 -8 5 -11
10 -3 6 -1 10 4 10 6 0 11 -4 11 -10z m6425 -260 c0 -8 -8 -16 -17 -18 -13 -2
-18 3 -18 18 0 15 5 20 18 18 9 -2 17 -10 17 -18z m955 -440 c0 -5 -4 -10 -10
-10 -5 0 -10 5 -10 10 0 6 5 10 10 10 6 0 10 -4 10 -10z m-1479 -56 c14 -18 5
-40 -25 -58 -25 -16 -60 27 -46 55 13 23 53 25 71 3z m-1263 -262 c2 -14 -2
-22 -12 -22 -19 0 -29 17 -22 36 8 22 30 12 34 -14z m-1570 -126 c2 -10 -1
-23 -7 -29 -15 -15 -46 16 -37 38 8 21 40 15 44 -9z m-778 -46 c0 -5 -4 -10
-10 -10 -5 0 -10 5 -10 10 0 6 5 10 10 10 6 0 10 -4 10 -10z m145 -491 c10
-15 -1 -23 -20 -15 -9 3 -13 10 -10 16 8 13 22 13 30 -1z m775 -105 c0 -17
-26 -19 -36 -3 -7 12 15 31 28 23 4 -3 8 -12 8 -20z m1305 -119 c0 -22 -31
-33 -48 -16 -7 7 -6 15 3 26 17 21 45 15 45 -10z m-302 -67 c6 -19 -3 -38 -18
-38 -18 0 -28 17 -21 35 7 18 33 20 39 3z m-1118 -8 c3 -5 -1 -10 -9 -10 -9 0
-16 5 -16 10 0 6 4 10 9 10 6 0 13 -4 16 -10z m-60 -45 c0 -22 -31 -33 -47
-17 -17 17 -1 44 24 40 15 -2 23 -10 23 -23z"/>
<path d="M5260 9000 c0 -5 12 -10 28 -9 24 0 25 1 7 9 -27 12 -35 12 -35 0z"/>
<path d="M5158 8993 c7 -3 16 -2 19 1 4 3 -2 6 -13 5 -11 0 -14 -3 -6 -6z"/>
<path d="M5080 8980 c-8 -5 -10 -10 -5 -10 6 0 17 5 25 10 8 5 11 10 5 10 -5
0 -17 -5 -25 -10z"/>
<path d="M4928 8973 c12 -2 32 -2 45 0 12 2 2 4 -23 4 -25 0 -35 -2 -22 -4z"/>
<path d="M4845 8963 c-11 -3 -24 -9 -29 -13 -5 -5 8 -5 29 0 20 4 39 11 42 14
7 7 -12 6 -42 -1z"/>
<path d="M4750 8935 c0 -13 4 -14 23 -4 33 17 33 19 4 19 -18 0 -27 -5 -27
-15z"/>
<path d="M4705 8930 c-3 -5 -12 -7 -19 -4 -7 3 -16 -2 -19 -10 -9 -23 22 -20
53 4 20 15 21 20 8 20 -9 0 -19 -4 -23 -10z"/>
<path d="M4628 8923 c7 -3 16 -2 19 1 4 3 -2 6 -13 5 -11 0 -14 -3 -6 -6z"/>
<path d="M4498 8893 c6 -2 18 -2 25 0 6 3 1 5 -13 5 -14 0 -19 -2 -12 -5z"/>
<path d="M4395 8870 c3 -5 11 -10 16 -10 6 0 7 5 4 10 -3 6 -11 10 -16 10 -6
0 -7 -4 -4 -10z"/>
<path d="M4435 8870 c-3 -5 -2 -10 4 -10 5 0 13 5 16 10 3 6 2 10 -4 10 -5 0
-13 -4 -16 -10z"/>
<path d="M4505 8860 c3 -5 13 -10 21 -10 8 0 12 5 9 10 -3 6 -13 10 -21 10 -8
0 -12 -4 -9 -10z"/>
<path d="M4354 8845 c-17 -13 -17 -14 -2 -15 9 0 20 5 23 11 11 17 0 20 -21 4z"/>
<path d="M4440 8844 c-14 -8 -18 -13 -10 -13 24 1 55 15 44 21 -5 2 -20 -1
-34 -8z"/>
<path d="M4292 8836 c7 -8 16 -12 21 -9 11 7 -2 23 -19 23 -12 0 -12 -2 -2
-14z"/>
<path d="M4257 8829 c7 -7 15 -10 18 -7 3 3 -2 9 -12 12 -14 6 -15 5 -6 -5z"/>
<path d="M4086 8792 c-3 -4 9 -13 26 -20 l31 -11 -21 19 c-23 22 -28 24 -36
12z"/>
<path d="M4188 8793 c7 -3 16 -2 19 1 4 3 -2 6 -13 5 -11 0 -14 -3 -6 -6z"/>
<path d="M4042 8769 c-32 -12 -27 -17 18 -15 22 0 40 4 40 7 0 12 -35 16 -58
8z"/>
<path d="M3993 8744 c0 -8 10 -14 25 -14 28 0 27 2 -4 18 -16 9 -21 8 -21 -4z"/>
<path d="M3915 8730 c3 -5 8 -10 11 -10 2 0 4 5 4 10 0 6 -5 10 -11 10 -5 0
-7 -4 -4 -10z"/>
<path d="M3940 8730 c0 -15 21 -23 32 -12 6 6 2 11 -11 15 -12 3 -21 1 -21 -3z"/>
<path d="M3890 8716 c0 -2 7 -7 16 -10 8 -3 12 -2 9 4 -6 10 -25 14 -25 6z"/>
<path d="M3815 8680 c-3 -6 1 -7 9 -4 18 7 21 14 7 14 -6 0 -13 -4 -16 -10z"/>
<path d="M3770 8654 c0 -14 3 -14 15 -4 8 7 15 14 15 16 0 2 -7 4 -15 4 -8 0
-15 -7 -15 -16z"/>
<path d="M3720 8643 c0 -6 -15 -15 -32 -20 l-33 -11 32 2 c30 1 52 21 38 34
-3 3 -5 1 -5 -5z"/>
<path d="M3610 8580 c-8 -5 -11 -12 -7 -16 4 -4 15 0 24 9 18 18 8 23 -17 7z"/>
<path d="M3570 8561 c0 -5 5 -13 10 -16 6 -3 10 -2 10 4 0 5 -4 13 -10 16 -5
3 -10 2 -10 -4z"/>
<path d="M3515 8530 c-3 -5 -1 -10 4 -10 6 0 11 5 11 10 0 6 -2 10 -4 10 -3 0
-8 -4 -11 -10z"/>
<path d="M3480 8516 c0 -2 7 -7 16 -10 8 -3 12 -2 9 4 -6 10 -25 14 -25 6z"/>
<path d="M2686 7845 c-20 -20 -20 -22 -1 -22 8 0 12 4 9 8 -2 4 2 9 8 12 7 2
10 7 7 11 -4 4 -14 0 -23 -9z"/>
<path d="M2824 7815 c1 -27 12 -31 36 -15 13 8 12 10 -2 10 -10 0 -18 7 -18
15 0 8 -4 15 -9 15 -5 0 -8 -11 -7 -25z"/>
<path d="M2838 7776 c-27 -20 -21 -29 7 -10 23 15 25 15 25 0 0 -9 4 -16 8
-16 4 0 8 9 8 20 0 23 -23 26 -48 6z"/>
<path d="M2840 7739 c0 -5 5 -7 10 -4 6 3 10 8 10 11 0 2 -4 4 -10 4 -5 0 -10
-5 -10 -11z"/>
<path d="M2930 7739 c0 -5 5 -7 10 -4 6 3 10 8 10 11 0 2 -4 4 -10 4 -5 0 -10
-5 -10 -11z"/>
<path d="M3081 7724 c0 -11 3 -14 6 -6 3 7 2 16 -1 19 -3 4 -6 -2 -5 -13z"/>
<path d="M3085 7660 c-19 -8 -19 -9 3 -9 12 -1 22 4 22 9 0 6 -1 10 -2 9 -2 0
-12 -4 -23 -9z"/>
<path d="M3020 7640 c-8 -5 -12 -12 -9 -15 8 -8 39 5 39 16 0 11 -11 11 -30
-1z"/>
<path d="M3040 7589 c0 -18 2 -19 15 -9 8 7 15 16 15 21 0 5 -7 9 -15 9 -9 0
-15 -9 -15 -21z"/>
<path d="M3004 7504 c3 -9 6 -18 6 -20 0 -3 4 -3 10 1 11 7 2 35 -12 35 -6 0
-7 -7 -4 -16z"/>
<path d="M3195 7030 c-3 -6 1 -7 9 -4 18 7 21 14 7 14 -6 0 -13 -4 -16 -10z"/>
<path d="M3648 6389 c-16 -9 -16 -13 -4 -37 64 -126 102 -279 91 -372 -12 -98
-11 -153 1 -157 20 -7 27 28 31 152 6 138 -20 297 -61 375 -26 49 -33 54 -58
39z"/>
<path d="M3888 5630 c-14 -13 -18 -33 -18 -92 0 -88 22 -147 71 -193 l32 -30
-22 33 c-13 18 -32 58 -42 88 -18 50 -19 64 -9 131 7 41 10 76 8 78 -2 1 -11
-5 -20 -15z"/>
<path d="M4968 4953 c6 -2 18 -2 25 0 6 3 1 5 -13 5 -14 0 -19 -2 -12 -5z"/>
<path d="M5148 4913 c7 -3 16 -2 19 1 4 3 -2 6 -13 5 -11 0 -14 -3 -6 -6z"/>
<path d="M4685 4900 c3 -5 10 -10 16 -10 5 0 9 5 9 10 0 6 -7 10 -16 10 -8 0
-12 -4 -9 -10z"/>
<path d="M5198 4903 c7 -3 16 -2 19 1 4 3 -2 6 -13 5 -11 0 -14 -3 -6 -6z"/>
<path d="M5013 4713 c9 -2 23 -2 30 0 6 3 -1 5 -18 5 -16 0 -22 -2 -12 -5z"/>
<path d="M6720 4250 c0 -5 5 -10 11 -10 5 0 7 5 4 10 -3 6 -8 10 -11 10 -2 0
-4 -4 -4 -10z"/>
<path d="M7527 4165 c3 -8 9 -12 14 -9 12 7 11 11 -5 17 -10 4 -13 1 -9 -8z"/>
<path d="M7740 4170 c0 -5 13 -7 29 -4 17 4 32 1 36 -6 11 -17 -3 -25 -20 -10
-8 7 -15 8 -15 2 0 -9 42 -42 54 -42 2 0 2 9 -1 20 -4 16 0 20 17 20 15 0 20
-5 17 -14 -4 -10 0 -12 14 -9 10 3 19 11 19 18 0 17 -34 28 -60 20 -11 -4 -20
-2 -20 4 0 6 -16 11 -35 11 -19 0 -35 -4 -35 -10z"/>
<path d="M7620 4155 c0 -8 2 -15 4 -15 2 0 6 7 10 15 3 8 1 15 -4 15 -6 0 -10
-7 -10 -15z"/>
<path d="M7722 4141 c-10 -6 -7 -10 12 -13 16 -3 25 -1 23 5 -5 15 -20 18 -35
8z"/>
<path d="M8221 7198 c-1 -16 4 -28 9 -28 12 0 12 8 0 35 -8 18 -9 17 -9 -7z"/>
<path d="M7910 7030 c0 -5 5 -10 11 -10 5 0 7 5 4 10 -3 6 -8 10 -11 10 -2 0
-4 -4 -4 -10z"/>
<path d="M3935 6111 c-11 -5 -23 -7 -27 -4 -5 2 -8 -3 -8 -11 0 -13 6 -13 46
-1 25 7 49 16 52 19 8 9 -40 6 -63 -3z"/>
<path d="M4254 5979 c-8 -14 11 -33 25 -25 16 10 13 36 -3 36 -8 0 -18 -5 -22
-11z"/>
<path d="M3948 5943 c6 -2 18 -2 25 0 6 3 1 5 -13 5 -14 0 -19 -2 -12 -5z"/>
<path d="M3911 5904 c0 -11 3 -14 6 -6 3 7 2 16 -1 19 -3 4 -6 -2 -5 -13z"/>
<path d="M4335 5810 c3 -5 13 -10 21 -10 8 0 14 5 14 10 0 6 -9 10 -21 10 -11
0 -17 -4 -14 -10z"/>
<path d="M4214 5774 c3 -9 6 -18 6 -20 0 -2 4 -4 9 -4 5 0 7 9 4 20 -3 11 -10
20 -15 20 -6 0 -7 -7 -4 -16z"/>
<path d="M4235 5623 c-44 -11 -54 -44 -18 -58 18 -6 63 31 63 52 0 13 -9 15
-45 6z"/>
<path d="M4750 5590 c-8 -5 -12 -12 -9 -15 4 -3 12 1 19 10 14 17 11 19 -10 5z"/>
<path d="M4750 5527 c0 -8 10 -22 22 -33 20 -18 21 -18 15 -1 -4 10 -7 25 -7
33 0 8 -7 14 -15 14 -8 0 -15 -6 -15 -13z"/>
<path d="M3190 4712 c0 -5 -10 -14 -22 -20 -22 -10 -21 -10 6 -8 18 2 30 9 32
20 1 9 -2 16 -7 16 -5 0 -9 -4 -9 -8z"/>
<path d="M3050 4690 c0 -5 8 -10 18 -10 10 0 23 -5 30 -12 7 -7 12 -8 12 -4 0
12 -32 35 -47 36 -7 0 -13 -4 -13 -10z"/>
<path d="M3330 4679 c0 -5 -4 -7 -10 -4 -15 10 -12 -3 7 -25 21 -25 37 -26 25
-2 -5 9 -7 23 -5 30 3 6 0 12 -6 12 -6 0 -11 -5 -11 -11z"/>
<path d="M2830 4658 c0 -9 5 -20 10 -23 13 -8 13 5 0 25 -8 13 -10 13 -10 -2z"/>
<path d="M3050 4651 c0 -6 4 -13 10 -16 6 -3 7 1 4 9 -7 18 -14 21 -14 7z"/>
<path d="M3265 4630 c-3 -5 -1 -10 4 -10 6 0 11 5 11 10 0 6 -2 10 -4 10 -3 0
-8 -4 -11 -10z"/>
<path d="M2990 4620 c-9 -6 -10 -10 -3 -10 6 0 15 5 18 10 8 12 4 12 -15 0z"/>
<path d="M3418 4613 c7 -3 16 -2 19 1 4 3 -2 6 -13 5 -11 0 -14 -3 -6 -6z"/>
<path d="M2880 4565 c0 -19 5 -25 21 -25 11 0 18 -4 14 -9 -3 -5 -1 -12 4 -16
18 -10 3 33 -18 54 l-21 21 0 -25z"/>
<path d="M3410 4500 c0 -5 5 -10 11 -10 5 0 7 5 4 10 -3 6 -8 10 -11 10 -2 0
-4 -4 -4 -10z"/>
<path d="M3280 4480 c0 -5 5 -10 10 -10 6 0 10 5 10 10 0 6 -4 10 -10 10 -5 0
-10 -4 -10 -10z"/>
<path d="M6602 3937 c-17 -18 -51 -60 -74 -94 -24 -34 -63 -90 -88 -125 -76
-106 -120 -184 -120 -214 l1 -29 13 30 c23 53 97 167 171 266 40 53 78 107 85
120 20 37 50 59 81 59 29 0 314 -47 624 -104 105 -19 217 -37 250 -40 l60 -6
-65 15 c-36 8 -118 24 -184 35 -65 11 -122 23 -127 25 -4 3 -56 12 -116 20
-59 9 -174 29 -255 45 -192 39 -215 39 -256 -3z"/>
<path d="M7660 3791 c0 -6 9 -11 21 -11 11 0 43 -7 70 -16 58 -19 78 -11 27
11 -51 21 -118 30 -118 16z"/>
<path d="M7470 3681 c-14 -27 -13 -84 2 -99 17 -17 59 -15 86 4 27 19 29 64 4
87 -23 21 -32 21 -48 0 -7 -10 -16 -15 -20 -11 -4 4 -1 14 6 23 10 12 10 15
-3 15 -9 0 -21 -9 -27 -19z m84 -27 c3 -9 4 -20 0 -25 -8 -13 -32 -11 -37 4
-11 32 25 53 37 21z m-24 -66 c0 -13 -23 -5 -28 10 -2 7 2 10 12 6 9 -3 16
-11 16 -16z"/>
<path d="M7692 3664 c-18 -12 -22 -25 -22 -70 0 -49 2 -55 26 -64 28 -11 37
-8 72 23 26 24 30 78 7 97 -13 11 -20 11 -40 0 -27 -14 -49 -5 -25 10 8 5 12
11 9 14 -3 3 -15 -1 -27 -10z m68 -49 c0 -30 -25 -34 -33 -6 -5 22 0 31 20 31
7 0 13 -11 13 -25z m-29 -51 c12 -14 11 -16 -5 -13 -11 2 -21 10 -24 17 -5 17
13 15 29 -4z"/>
<path d="M8213 3481 c-64 -75 -63 -76 30 -95 126 -25 133 -24 167 31 45 71 44
75 -43 98 -88 23 -109 18 -154 -34z"/>
<path d="M7091 3486 c2 -2 157 -6 344 -9 187 -3 327 -2 310 3 -30 8 -662 14
-654 6z"/>
<path d="M6750 3470 c-20 -5 1 -6 50 -3 47 3 87 7 89 9 8 7 -103 2 -139 -6z"/>
<path d="M6648 3453 c12 -2 32 -2 45 0 12 2 2 4 -23 4 -25 0 -35 -2 -22 -4z"/>
<path d="M6483 3443 c9 -2 25 -2 35 0 9 3 1 5 -18 5 -19 0 -27 -2 -17 -5z"/>
<path d="M7723 3213 c15 -2 39 -2 55 0 15 2 2 4 -28 4 -30 0 -43 -2 -27 -4z"/>
<path d="M2344 2456 c-10 -8 -17 -16 -14 -19 8 -8 50 11 50 23 0 14 -13 13
-36 -4z"/>
<path d="M1030 9990 c-9 -6 -10 -10 -3 -10 6 0 15 5 18 10 8 12 4 12 -15 0z"/>
<path d="M367 7901 c-4 -17 -3 -21 5 -13 5 5 8 16 6 23 -3 8 -7 3 -11 -10z"/>
<path d="M10225 7850 c-3 -6 1 -7 9 -4 18 7 21 14 7 14 -6 0 -13 -4 -16 -10z"/>
<path d="M10211 7814 c0 -11 3 -14 6 -6 3 7 2 16 -1 19 -3 4 -6 -2 -5 -13z"/>
<path d="M8 5553 c7 -3 16 -2 19 1 4 3 -2 6 -13 5 -11 0 -14 -3 -6 -6z"/>
<path d="M10165 3570 c-7 -12 2 -30 16 -30 12 0 12 27 0 35 -5 3 -12 1 -16 -5z"/>
<path d="M10334 2825 c-3 -8 -3 -19 1 -25 10 -16 35 7 28 26 -7 18 -22 18 -29
-1z"/>
<path d="M566 2632 c-2 -4 4 -8 14 -8 10 0 16 4 14 8 -3 4 -9 8 -14 8 -5 0
-11 -4 -14 -8z"/>
<path d="M9741 1883 c7 -12 15 -20 18 -17 3 2 -3 12 -13 22 -17 16 -18 16 -5
-5z"/>
<path d="M3280 320 c0 -13 5 -20 13 -17 6 2 12 10 12 17 0 7 -6 15 -12 18 -8
2 -13 -5 -13 -18z"/>
<path d="M4525 71 c-7 -12 12 -24 25 -16 11 7 4 25 -10 25 -5 0 -11 -4 -15 -9z"/>
<path d="M3817 44 c-7 -8 4 -44 14 -44 12 0 12 37 0 44 -4 3 -11 3 -14 0z"/>
<path d="M6035 10 c-3 -5 3 -10 15 -10 12 0 18 5 15 10 -3 6 -10 10 -15 10 -5
0 -12 -4 -15 -10z"/>
<path d="M2588 3 c7 -3 16 -2 19 1 4 3 -2 6 -13 5 -11 0 -14 -3 -6 -6z"/>
</g>
</svg>
